# xmcd CD database file
#
# Track frame offsets:
#	150
#	30512
#	50650
#	76413
#	101597
#	127464
#	154560
#	182846
#	211200
#	228746
#	249805
#	276045
#	296019
#	314567
#	338516
#
# Disc length: 4798 seconds
#
# Revision: 1
# Processed by: cddbd v1.5.2PL0 Copyright (c) Steve Scherf et al.
# Submitted via: CDex 1.70beta2
#
DISCID=d612bc0f
DTITLE=bird - Free Soul Collection
DYEAR=2008
DGENRE=JPop
TTITLE0=SOULS ＜Peach Bossa Mix＞
TTITLE1=Someone To Light Up My Life (So Todos Fossem Iguais A Voce)
TTITLE2=SPARKLES
TTITLE3=桜 ＜Mad Professor's Lovers Rock Dub＞
TTITLE4=あれから
TTITLE5=満ちてゆく唇 ＜Album Swing Mix＞
TTITLE6=BEATS ＜Original Version＞
TTITLE7=REALIZE feat.SUIKEN and DEV LARGE
TTITLE8=What’s Going On ＜Live Version＞
TTITLE9=ファイル
TTITLE10=オアシス ＜北大中 Version＞
TTITLE11=スパイダー
TTITLE12=Smile ＜Live Version＞
TTITLE13=よろこびの種
TTITLE14=散歩しよう
EXTD=YEAR: 2008
EXTT0=
EXTT1=
EXTT2=
EXTT3=
EXTT4=
EXTT5=
EXTT6=
EXTT7=
EXTT8=
EXTT9=
EXTT10=
EXTT11=
EXTT12=
EXTT13=
EXTT14=
PLAYORDER=
